<!DOCTYPE svg PUBLIC "-//W3C//DTD SVG 1.1//EN" "http://www.w3.org/Graphics/SVG/1.1/DTD/svg11.dtd">
<!-- Uploaded to: SVG Repo, www.svgrepo.com, Transformed by: SVG Repo Mixer Tools -->
<svg width="800px" height="800px" viewBox="0 0 28 28" version="1.1" xmlns="http://www.w3.org/2000/svg" xmlns:xlink="http://www.w3.org/1999/xlink" fill="#000000" style="--darkreader-inline-fill: var(--darkreader-background-8b7d74, #60686c); --darkreader-inline-stroke: var(--darkreader-text-8b7d74, #988f81);" stroke="#000000" data-darkreader-inline-fill="" data-darkreader-inline-stroke="">
<g id="SVGRepo_bgCarrier" stroke-width="0"/>
<g id="SVGRepo_tracerCarrier" stroke-linecap="round" stroke-linejoin="round"/>
<g id="SVGRepo_iconCarrier"> <!-- Uploaded to: SVG Repo, www.svgrepo.com, Transformed by: SVG Repo Mixer Tools --> <title>ic_fluent_library_28_filled</title> <desc>Created with Sketch.</desc> <g id="🔍-Product-Icons" stroke="none" stroke-width="1" fill="none" fill-rule="evenodd" data-darkreader-inline-stroke="" style="--darkreader-inline-stroke: none;"> <g id="ic_fluent_library_28_filled" fill="#8B7D74" fill-rule="nonzero" data-darkreader-inline-fill="" style="--darkreader-inline-fill: var(--darkreader-background-212121, #8B7D74191b1c);"> <path d="M5.9897,3 C7.0937,3 7.9897,3.896 7.9897,5 L7.9897,23 C7.9897,24.104 7.0937,25 5.9897,25 L4.0007,25 C2.8957,25 2.0007,24.104 2.0007,23 L2.0007,5 C2.0007,3.896 2.8957,3 4.0007,3 L5.9897,3 Z M12.9897,3 C14.0937,3 14.9897,3.896 14.9897,5 L14.9897,23 C14.9897,24.104 14.0937,25 12.9897,25 L10.9947,25 C9.8897,25 8.9947,24.104 8.9947,23 L8.9947,5 C8.9947,3.896 9.8897,3 10.9947,3 L12.9897,3 Z M22.0701,6.5432 L25.9301,22.0262 C26.1971,23.0972 25.5441,24.1832 24.4731,24.4512 L22.5101,24.9402 C21.4391,25.2072 20.3531,24.5552 20.0861,23.4832 L16.2261,8.0002 C15.9581,6.9282 16.6111,5.8432 17.6821,5.5752 L19.6451,5.0862 C20.7161,4.8182 21.8021,5.4712 22.0701,6.5432 Z" id="🎨-Color"> </path> </g> </g> </g>
</svg>